<svg xmlns="http://www.w3.org/2000/svg" width="40" height="44" fill="none" viewBox="0 0 40 44"><path fill="#262626" d="M14.37 41.987H24.6c5.826 0 8.705-2.947 8.655-8.84-.067-6.73-.1-11.618-.268-15.284C32.501 7.08 29.471 3.917 19.493 3.917S6.468 7.081 5.983 17.863c-.168 3.666-.201 8.554-.268 15.284-.05 5.893 2.83 8.84 8.655 8.84m-.485-6.647c-1.44 0-2.36-.937-2.36-2.343v-8.639c0-1.423.92-2.36 2.36-2.36H25.1c1.423 0 2.344.937 2.344 2.36v8.639c0 1.406-.92 2.343-2.344 2.343zm-2.36-6.897h15.92v-1.992h-15.92zM19.492 0c-3.214 0-5.474 2.176-5.474 5.14h2.36c0-1.624 1.272-2.78 3.114-2.78 1.825 0 3.114 1.156 3.114 2.78h2.36c0-2.964-2.276-5.14-5.474-5.14"/></svg>