<svg xmlns="http://www.w3.org/2000/svg" width="40" height="40" fill="none" viewBox="0 0 40 40"><path fill="#262626" d="M3.533 27.225c1.2 0 2.118-.919 2.118-2.09v-11.2a2.09 2.09 0 0 0-2.118-2.119c-1.186 0-2.104.933-2.104 2.119v11.2c0 1.171.918 2.09 2.104 2.09m7.037 3.274c1.97 0 3.349-1.318 3.349-3.185V11.772c0-1.882-1.378-3.2-3.349-3.2-1.955 0-3.333 1.318-3.333 3.2v15.542c0 1.867 1.378 3.185 3.333 3.185m5.067-8.104h9.201v-5.72h-9.2zm14.268 8.104c1.971 0 3.349-1.318 3.349-3.185V11.772c0-1.882-1.378-3.2-3.349-3.2-1.955 0-3.333 1.318-3.333 3.2v15.542c0 1.867 1.378 3.185 3.333 3.185m6.89-3.274c1.185 0 2.119-.919 2.119-2.09v-11.2a2.1 2.1 0 0 0-2.119-2.119c-1.185 0-2.104.933-2.104 2.119v11.2c0 1.171.919 2.09 2.104 2.09"/></svg>