<svg xmlns="http://www.w3.org/2000/svg" width="34" height="34" fill="none" viewBox="0 0 34 34"><path fill="#262626" d="M16.498 31.159c.227 0 .583-.086.939-.27 8.096-4.241 10.7-6.361 10.7-11.47V8.689c0-1.465-.626-1.935-1.82-2.433-1.666-.683-6.988-2.618-8.638-3.187a3.7 3.7 0 0 0-1.181-.2c-.399 0-.797.086-1.167.2-1.665.54-6.987 2.519-8.652 3.187-1.181.484-1.822.968-1.822 2.434v10.729c0 5.108 2.747 6.987 10.701 11.47.37.199.712.27.94.27M10.08 17.484c0-.171.085-.385.242-.57l8.04-10.088c.612-.769 1.636-.257 1.266.697l-2.647 7.115h4.967c.384 0 .668.27.668.654 0 .171-.085.385-.241.57l-8.04 10.089c-.612.768-1.623.256-1.267-.684l2.661-7.129h-4.98c-.37 0-.67-.27-.67-.654"/></svg>