<svg width="40" height="41" viewBox="0 0 40 41" fill="none" xmlns="http://www.w3.org/2000/svg">
<g clip-path="url(#clip0_61_348)">
<path d="M9.56101 2.76869C8.7407 4.70772 8.35566 6.64676 8.35566 8.53431C8.35566 14.7976 12.6748 19.9283 19.4047 19.9283C26.1347 19.9283 30.4539 14.7976 30.4539 8.53431C30.4539 6.64676 30.0689 4.70772 29.2653 2.76869C28.897 1.94503 27.9427 1.82492 27.3066 2.49414L23.5566 6.40653L20.359 2.16811C19.84 1.48172 18.9694 1.48172 18.4673 2.16811L15.2697 6.40653L11.503 2.49414C10.8668 1.82492 9.91257 1.94503 9.56101 2.76869ZM18.0654 37.3968C18.0654 38.1689 18.6514 38.6838 19.4047 38.6838C28.0599 38.6838 36.0119 33.2098 38.6236 25.5223C38.9919 24.4755 38.6067 23.8063 37.5186 23.8063C28.9639 23.8063 22.8031 28.9542 20.3256 35.4577L20.7609 36.0412V18.1952H18.0654V37.3968ZM15.772 30.8418C12.6246 26.6548 7.58556 23.8063 1.2407 23.8063C0.152528 23.8063 -0.232516 24.4755 0.135787 25.5223C2.37909 32.1803 8.60677 37.1908 15.9059 38.3748C15.8221 38.0831 15.772 37.7399 15.772 37.3968V30.8418Z" fill="#262626"/>
</g>
<defs>
<clipPath id="clip0_61_348">
<rect width="38.7593" height="37.2192" fill="white" transform="translate(0 1.46436)"/>
</clipPath>
</defs>
</svg>
