<svg xmlns="http://www.w3.org/2000/svg" width="195" height="45" fill="none" viewBox="0 0 195 45"><path fill="#cbea7b" d="M16.899 13.75C11.746 8.737 15.295 0 22.484 0c7.188 0 10.737 8.737 5.585 13.75l-5.585 5.434zm.031 17.5C11.78 36.263 15.329 45 22.517 45s10.738-8.737 5.586-13.75l-5.586-5.434zm-3.18-3.149C8.737 33.254 0 29.705 0 22.516c0-7.188 8.737-10.737 13.75-5.585l5.434 5.585zm17.5-.031C36.263 33.22 45 29.671 45 22.483s-8.737-10.738-13.75-5.586l-5.434 5.586z"/><path fill="#fff" d="M64.999 25.942V14.625h3.42v15.75H63.49L56.584 19.08H56.2v11.295h-3.42v-15.75h4.613v.022h.315l6.885 11.295zm15.862-8.19h3.42v12.623h-3.42V28.53h-.157c-.81 1.125-1.958 1.845-4.23 1.845-5.333 0-5.468-4.455-5.468-6.3v-6.323h3.398v6.323c0 .99-.225 3.375 3.06 3.375 2.947 0 3.397-1.89 3.397-3.6zm10.665 2.925v4.748c0 1.822.81 1.575 4.095 1.395v3.33s-.675.225-4.095.225c-3.442 0-3.442-2.813-3.442-4.635v-5.063h-1.665v-2.88h1.665v-3.645h3.442v3.645h4.095v2.88zm13.728-2.925c.9 0 1.643.203 2.228.338l-.54 3.217c-.315-.09-1.193-.27-2.273-.27-2.542 0-3.285 1.98-3.285 3.69v5.648h-3.42V17.752h3.42v1.868h.203c.72-1.215 1.485-1.868 3.667-1.868m7.455 12.623h-3.397V17.842h3.397zm0-13.433h-3.397v-3.06h3.397zm7.455 3.735v4.748c0 1.822.81 1.575 4.095 1.395v3.33s-.675.225-4.095.225c-3.443 0-3.443-2.813-3.443-4.635v-5.063h-1.665v-2.88h1.665v-3.645h3.443v3.645h4.095v2.88zm9.769 9.698h-3.397V17.842h3.397zm0-13.433h-3.397v-3.06h3.397zm9.367.585c3.848 0 7.043 2.048 7.043 6.435 0 4.433-3.195 6.413-7.043 6.413-3.825 0-7.02-2.048-7.02-6.413 0-4.342 3.195-6.435 7.02-6.435m0 9.743c2.16 0 3.69-1.035 3.69-3.308 0-2.34-1.53-3.307-3.69-3.307-2.137 0-3.667.922-3.667 3.307 0 2.363 1.53 3.308 3.667 3.308m17.145-9.518c5.332 0 5.467 4.478 5.467 6.323v6.3h-3.397v-6.3c0-.99.202-3.375-3.06-3.375-2.97 0-3.398 1.89-3.398 3.6v6.075h-3.42V17.752h3.42v1.868h.158c.81-1.125 1.957-1.868 4.23-1.868m11.442 12.623h-3.398V17.842h3.398zm0-13.433h-3.398v-3.06h3.398zm8.832 5.783c2.858.427 6.098.922 6.098 3.915 0 3.127-2.25 3.735-6.12 3.735-2.858 0-4.815-.518-5.828-1.53-.877-.878-.877-1.935-.855-2.588v-.247h3.51v.112c0 1.08.81 1.575 3.083 1.575 1.372 0 2.677-.18 2.677-1.012 0-.945-1.215-1.125-2.587-1.283l-.54-.067c-3.623-.473-5.873-1.283-5.873-3.803 0-1.755 1.013-3.847 5.873-3.847 5.22 0 6.322 2.317 6.322 4.252v.113h-3.487v-.113c0-.99-.855-1.53-2.835-1.53-1.913 0-2.318.698-2.318 1.08 0 .563.383.878 2.588 1.215zm12.782-2.048v4.748c0 1.822.81 1.575 4.095 1.395v3.33s-.675.225-4.095.225c-3.442 0-3.442-2.813-3.442-4.635v-5.063h-1.665v-2.88h1.665v-3.645h3.442v3.645h4.095v2.88z"/></svg>