<svg xmlns="http://www.w3.org/2000/svg" width="40" height="40" fill="none" viewBox="0 0 40 40"><path fill="#262626" d="M10.904 37.322h17.78c3.448 0 5.189-1.758 5.189-5.24V6.685c0-3.498-1.724-5.256-5.19-5.256h-4.252c-.57 0-.954.401-.954 1.004v.235c0 2.176-1.474 3.482-3.683 3.482-2.21 0-3.683-1.306-3.683-3.482v-.235c0-.602-.386-1.004-.955-1.004h-4.252c-3.465 0-5.19 1.758-5.19 5.256v25.397c0 3.482 1.741 5.24 5.19 5.24M13.45 13.9c-.603 0-1.038-.452-1.038-1.055 0-.57.435-1.021 1.038-1.021h12.706c.586 0 1.021.452 1.021 1.021 0 .603-.435 1.055-1.02 1.055zm0 5.943c-.603 0-1.038-.452-1.038-1.021 0-.586.435-1.038 1.038-1.038h6.01c.602 0 1.038.452 1.038 1.038 0 .569-.436 1.02-1.038 1.02z"/></svg>